<?xml version="1.0" standalone="no"?><!DOCTYPE svg PUBLIC "-//W3C//DTD SVG 1.1//EN" "http://www.w3.org/Graphics/SVG/1.1/DTD/svg11.dtd"><svg t="1605439531533" class="icon" viewBox="0 0 1024 1024" version="1.1" xmlns="http://www.w3.org/2000/svg" p-id="1883" data-spm-anchor-id="a313x.7781069.0.i0" xmlns:xlink="http://www.w3.org/1999/xlink" width="200" height="200"><defs><style type="text/css"></style></defs><path d="M559.070891 14.216533a84.923733 84.923733 0 0 0-94.0544 0L38.401024 297.181867c-70.485333 46.728533-37.461333 163.140267 47.035733 163.140266H118.477824l1.092267 461.312c0.0512 60.074667 40.9088 102.314667 100.864 102.365867h377.582933c56.7808-0.068267 101.6832-46.199467 101.751467-103.1168l1.109333-322.833067c-0.068267-56.9344-46.08-103.048533-102.8608-103.133866H423.629824c-56.7808 0.085333-99.2768 46.199467-99.345067 103.133866v277.5552c0 17.698133 16.827733 28.7232 34.474667 28.7232 17.664 0 33.792-11.025067 33.792-28.7232V598.050133c0.034133-21.5552 9.591467-34.816 31.061333-34.850133h174.3872c21.486933 0.034133 33.621333 13.312 33.655467 34.850133v322.833067c-0.034133 21.538133-12.168533 34.986667-33.655467 35.0208h-348.501333c-24.644267-0.034133-61.952-16.059733-62.0032-40.772267l-0.0512-482.730666c0-23.6032-30.839467-42.717867-54.3744-42.717867-0.341333 0-0.6656 0.085333-0.989867 0.119467H85.436757c-13.090133 0-18.3296-8.277333-20.411733-15.223467-2.0992-6.929067-2.286933-16.725333 8.6528-23.9616L500.259157 67.652267c7.133867-4.727467 16.401067-4.727467 23.534934 0l426.5984 282.948266c10.922667 7.236267 10.752 17.015467 8.6528 23.9616-2.082133 6.946133-7.304533 17.92-20.411734 17.92h-53.248c-23.517867 0-49.1008 16.401067-49.1008 40.004267v482.645333c0 24.6784-17.8688 40.789333-42.496 40.789334H752.675157c-17.664 0-35.7376 16.452267-35.7376 34.1504S735.028224 1024 752.675157 1024h45.397334c59.9552-0.068267 106.427733-48.759467 106.496-108.8512l0.017066-454.826667h34.065067c84.497067 0 117.486933-116.411733 47.018667-163.140266L559.070891 14.199467z" fill="#d4237a" p-id="1884" data-spm-anchor-id="a313x.7781069.0.i1" class="selected"></path></svg>